# xmcd CD database file
#
# Track frame offsets:
#	150
#	28184
#	57964
#	94179
#	99922
#	129542
#	164107
#	198665
#	203081
#	231852
#	263136
#
# Disc length: 4013 seconds
#
# Revision: 0
# Processed by: cddbd v1.5.1PL0 Copyright (c) Steve Scherf et al.
# Submitted via: CDex 1.51
#
DISCID=9c0fab0b
DTITLE=Shere Khan - Age :CD1: Technology
DYEAR=2000
DGENRE=Drum and Base
TTITLE0=Babylon
TTITLE1=One day
TTITLE2=Circle of knowledge
TTITLE3=Soundscape:Industrial
TTITLE4=Criminal record
TTITLE5=Equaliser
TTITLE6=Vampire
TTITLE7=Soundscape:Nano
TTITLE8=Siren
TTITLE9=2410.Vision
TTITLE10=Torn!
EXTD=YEAR: 2000
EXTT0=
EXTT1=
EXTT2=
EXTT3=
EXTT4=
EXTT5=
EXTT6=
EXTT7=
EXTT8=
EXTT9=
EXTT10=
PLAYORDER=
